# AST/ASF file generated using VICON BodyLanguage
# -----------------------------------------------
:version 1.10
:name VICON
:units
  mass 1.0
  length 0.45
  angle deg
:documentation
   .ast/.asf automatically generated from VICON data using
   VICON BodyBuilder and BodyLanguage model FoxedUp or BRILLIANT.MOD
:root
   order TX TY TZ RX RY RZ
   axis XYZ
   position 0 0 0  
   orientation 0 -0 0 
:bonedata
  begin
     id 1 
     name lhipjoint
     direction 0.432694 -0.693742 0.575759 
     length 2.19277 
     axis 0 -0 0  XYZ
  end
  begin
     id 2 
     name lfemur
     direction 0.34202 -0.939693 0  
     length 6.69022  
     axis 0 -0 20  XYZ
    dof rx ry rz
    limits (-160.0 20.0)
           (-70.0 70.0)
           (-60.0 70.0)
  end
  begin
     id 3 
     name ltibia
     direction 0.34202 -0.939693 0   
     length 6.50337   
     axis 0 -0 20   XYZ
    dof rx
    limits (-10.0 170.0)
  end
  begin
     id 4 
     name lfoot
     direction 0.158999 -0.435969 0.885805   
     length 2.70564   
     axis -90 -1.13533e-015 20   XYZ
    dof rx rz
    limits (-45.0 90.0)
           (-70.0 20.0)
  end
  begin
     id 5 
     name ltoes
     direction -0.00592919 0.00964381 0.999936   
     length 1.29929   
     axis -90 -1.13533e-015 20   XYZ
    dof rx
    limits (-90.0 20.0)
  end
  begin
     id 6 
     name rhipjoint
     direction -0.414359 -0.700339 0.581234   
     length 2.17212  
     axis 0 -0 0  XYZ 
  end
  begin
     id 7 
     name rfemur
     direction -0.34202 -0.939693 0   
     length 7.17659   
     axis 0 -0 -20   XYZ
    dof rx ry rz
    limits (-160.0 20.0)
           (-70.0 70.0)
           (-70.0 60.0)
  end
  begin
     id 8 
     name rtibia
     direction -0.34202 -0.939693 0   
     length 6.36669   
     axis 0 -0 -20   XYZ
    dof rx
    limits (-10.0 170.0)
 end
 begin
     id 9 
     name rfoot
     direction -0.137064 -0.37658 0.916188   
     length 2.22351  
     axis -90 1.13533e-015 -20   XYZ
    dof rx rz
    limits (-45.0 90.0)
           (-20.0 70.0)
  end
  begin
     id 10 
     name rtoes
     direction -0.000784077 -0.00289101 0.999996   
     length 1.09522   
     axis -90 1.13533e-015 -20   XYZ
    dof rx
    limits (-90.0 20.0)
  end
  begin
     id 11 
     name lowerback
     direction -0.0176242 0.984912 -0.172157   
     length 1.65301   
     axis 0 -0 0   XYZ
    dof rx ry rz
    limits (-20.0 45.0)
           (-30.0 30.0)
           (-30.0 30.0)
  end
  begin
     id 12 
     name upperback
     direction -0.00218128 0.998776 -0.0494072   
     length 1.67776   
     axis 0 -0 0   XYZ
    dof rx ry rz
    limits (-20.0 45.0)
           (-30.0 30.0)
           (-30.0 30.0)
  end
  begin
     id 13 
     name thorax
     direction 0.00544186 0.999658 0.0255711   
     length 1.72293   
     axis 0 -0 0   XYZ
    dof rx ry rz
    limits (-20.0 45.0)
           (-30.0 30.0)
           (-30.0 30.0)
  end
  begin
     id 14 
     name lowerneck
     direction -0.105325 0.983841 0.144785   
     length 2.14226   
     axis 0 -0 0   XYZ
    dof rx ry rz
    limits (-20.0 45.0)
           (-30.0 30.0)
           (-30.0 30.0)
  end
  begin
     id 15 
     name upperneck
     direction 0.0547957 0.988053 -0.144041   
     length 2.17508   
     axis 0 -0 0   XYZ
    dof rx ry rz
    limits (-20.0 45.0)
           (-30.0 30.0)
           (-30.0 30.0)
  end
  begin
     id 16
     name head
     direction 0.0247488 0.997534 -0.0656813  
     length 2.20048  
     axis 0 -0 0   XYZ
    dof rx ry rz
    limits (-20.0 45.0)
           (-30.0 30.0)
           (-30.0 30.0)
  end
  begin
     id 17 
     name lclavicle
     direction 0.820559 0.567247 -0.0701026  
     length 4.09615  
     axis 0 -0 0   XYZ
    dof ry rz
    limits (-20.0 10.0)
           (0.0 20.0)
  end
  begin
     id 18 
     name lhumerus
     direction 0.999977 -0.0067566 -9.96392e-005   
     length 4.59333   
     axis -180 -30 -90   XYZ
    dof rx ry rz
    limits (-60.0 90.0)
           (-90.0 90.0)
           (-90.0 90.0)
  end
  begin
     id 19
     name lradius
     direction 1 -4.48982e-011 -2.53425e-027   
     length 2.81151   
     axis -180 -30 -90   XYZ
    dof rx
    limits (-10.0 170.0)
  end
  begin
     id 20
     name lwrist
     direction 1 -4.48939e-011 -7.39254e-028   
     length 1.40576   
     axis 2.56395e-016 90 90   XYZ
    dof ry
    limits (-180.0 0.0)
 end
  begin
     id 21 
     name lhand
     direction 1 -4.48939e-011 -1.47851e-027   
     length 0.895651   
     axis 9.43423e-016 90 90   XYZ
    dof rx rz
    limits (-90.0 90.0)
           (-45.0 45.0)
  end
  begin
     id 22 
     name lfingers
     direction 1 -4.48978e-011 -2.95702e-027   
     length 0.722097   
     axis 1.88685e-015 90 90   XYZ
    dof rx
    limits (0.0 90.0)
  end
  begin
     id 23
     name lthumb
     direction 0.707107 -6.34931e-011 0.707107   
     length 1.03679   
     axis -90 45 -9.86935e-015   XYZ
    dof rx rz
    limits (-45.0 45.0)
           (-45.0 45.0)
  end
  begin
     id 24 
     name rclavicle
     direction -0.831414 0.553102 -0.0531864   
     length 4.24872  
     axis 0 -0 0   XYZ 
    dof ry rz
    limits (-10.0 20.0)
           (-20.0 0.0)
  end
  begin
     id 25 
     name rhumerus
     direction -0.999916 -0.000939607 0.0129331  
     length 4.74834   
     axis -180 30 90   XYZ
    dof rx ry rz
    limits (-90.0 60.0)
           (-90.0 90.0)
           (-90.0 90.0)
  end
  begin
     id 26 
     name rradius
     direction -1 -4.48956e-011 -1.31752e-027   
     length 2.79907   
     axis -180 30 90   XYZ
    dof rx
    limits (-10.0 170.0)
  end
  begin
     id 27 
     name rwrist
     direction -1 -4.4897e-011 -7.39254e-028   
     length 1.39954   
     axis 2.56395e-016 -90 -90   XYZ
    dof ry
    limits (-180.0 0.0)
  end
  begin
     id 28
     name rhand
     direction -0.999997 -0.00250697 0.000800838   
     length 0.953304   
     axis 9.43423e-016 -90 -90   XYZ
    dof rx rz
    limits (-90.0 90.0)
           (-45.0 45.0)
  end
  begin
     id 29
     name rfingers
     direction -1 -4.48954e-011 -2.95702e-027   
     length 0.763342   
     axis 1.88685e-015 -90 -90   XYZ
    dof rx
    limits (0.0 90.0)
  end
  begin
     id 30
     name rthumb
     direction -0.709701 -0.00217037 0.7045   
     length 1.10115   
     axis -90 -45 9.86935e-015   XYZ
    dof rx rz
    limits (-45.0 45.0)
           (-45.0 45.0)
  end
:hierarchy
  begin
    root lhipjoint rhipjoint lowerback
    lhipjoint lfemur
    lfemur ltibia
    ltibia lfoot
    lfoot ltoes
    rhipjoint rfemur
    rfemur rtibia
    rtibia rfoot
    rfoot rtoes
    lowerback upperback
    upperback thorax
    thorax lowerneck lclavicle rclavicle
    lowerneck upperneck
    upperneck head
    lclavicle lhumerus
    lhumerus lradius
    lradius lwrist
    lwrist lhand lthumb
    lhand lfingers
    rclavicle rhumerus
    rhumerus rradius
    rradius rwrist
    rwrist rhand rthumb
    rhand rfingers
  end

#!OML:ASF G:\ViconDB\ViconDB\414\test\team2\shane.ASF
:FULLY-SPECIFIED
:DEGREES
1
root 0.196758 15.5681 -39.1291 18.7781 -14.8032 -15.9165
lowerback 18.4346 0.363152 2.37211
upperback 8.94383 0.671329 -1.98852
thorax -0.663774 0.39355 -3.57061
lowerneck -18.0782 -3.55104 -11.2476
upperneck 19.0056 1.11245 -12.7515
head 9.23866 -1.7083 -2.45465
rclavicle -4.29375e-014 -1.43125e-014
rhumerus 16.1293 21.8525 -64.9803
rradius 51.5004
rwrist 35.4389
rhand -44.6585 -32.2954
rfingers 7.12502
rthumb -17.455 -61.5317
lclavicle -4.29375e-014 -1.43125e-014
lhumerus 2.20744 -17.9334 55.0468
lradius 25.1574
lwrist -7.2683
lhand -49.792 8.94635
lfingers 7.12502
lthumb -22.3894 37.6689
rfemur -11.9571 -12.4992 27.1296
rtibia 39.0223
rfoot -36.6453 -9.28947
rtoes -17.8236
lfemur -37.0358 23.8382 1.44189
ltibia 84.0275
lfoot -34.964 -6.19482
ltoes -11.6466
2
root 0.176586 15.5582 -39.0533 19.1274 -14.7744 -15.6679
lowerback 18.785 0.547693 1.86608
upperback 9.45405 0.816839 -2.26315
thorax -0.287323 0.464399 -3.60381
lowerneck -18.415 -3.97975 -11.5344
upperneck 18.7856 0.757442 -13.2673
head 9.23609 -1.93702 -2.64316
rclavicle -4.29375e-014 -1.43125e-014
rhumerus 16.1293 21.8525 -64.9803
rradius 51.5004
rwrist 35.4389
rhand -44.6585 -32.2954
rfingers 7.12502
rthumb -17.455 -61.5317
lclavicle 1.27222e-014 3.97569e-014
lhumerus 4.305 -18.0358 52.9674
lradius 24.6376
lwrist -6.61432
lhand -49.3719 10.6813
lfingers 7.12502
lthumb -21.9861 39.4517
rfemur -12.5786 -12.4247 26.88
rtibia 40.0768
rfoot -36.8754 -8.68327
rtoes -17.5561
lfemur -40.075 24.6496 0.349362
ltibia 84.6236
lfoot -35.0772 -6.7997
ltoes -11.5981
3
root 0.164759 15.537 -38.9552 19.3556 -14.947 -15.4577
lowerback 19.2111 0.821973 1.316
upperback 9.92864 1.07052 -2.45277
thorax 0.0193918 0.580659 -3.54434
lowerneck -18.7791 -4.39495 -12.1704
upperneck 18.8174 0.51167 -13.519
head 9.33182 -2.13318 -2.68351
rclavicle 1.27222e-014 -3.65764e-014
rhumerus 25.7682 25.6212 -63.6571
rradius 46.6397
rwrist 37.6371
rhand -43.1124 -28.3335
rfingers 7.12502
rthumb -15.9666 -57.6955
lclavicle 1.27222e-014 -3.65764e-014
lhumerus 6.23884 -16.6251 52.0628
lradius 23.5466
lwrist -7.21446
lhand -48.6903 10.6885
lfingers 7.12502
lthumb -21.3316 39.5344
rfemur -12.9387 -12.5431 26.5165
rtibia 41.0229
rfoot -36.771 -8.68367
rtoes -17.8242
lfemur -42.8749 25.4596 -0.99184
ltibia 84.8438
lfoot -35.2984 -7.217
ltoes -11.9791
4
root 0.146134 15.5173 -38.8598 19.6271 -14.7314 -14.9462
lowerback 19.5601 1.06705 0.872999
upperback 10.3977 1.30376 -2.70942
thorax 0.364349 0.69266 -3.61336
lowerneck -18.9317 -4.95491 -12.7232
upperneck 18.8113 0.0324254 -13.882
head 9.37321 -2.42846 -2.80237
rclavicle -2.06736e-014 1.74931e-014
rhumerus 29.82 26.6498 -63.0596
rradius 44.1943
rwrist 38.6969
rhand -42.2591 -26.7428
rfingers 7.12502
rthumb -15.1447 -56.1686
lclavicle -2.06736e-014 1.74931e-014
lhumerus 8.55205 -16.3154 50.9577
lradius 22.6453
lwrist -6.53966
lhand -48.4692 10.8564
lfingers 7.12502
lthumb -21.1192 39.7262
rfemur -13.4714 -12.2976 26.1435
rtibia 41.9765
rfoot -36.527 -9.51417
rtoes -19.2367
lfemur -46.0952 25.8021 -2.70424
ltibia 84.9043
lfoot -35.5457 -7.66005
ltoes -12.0633
5
root 0.126639 15.5033 -38.7533 19.9599 -14.3316 -14.5512
lowerback 19.9565 1.23135 0.535048
upperback 10.8193 1.45161 -2.88208
thorax 0.630649 0.761939 -3.63975
lowerneck -19.1589 -5.45832 -13.6088
upperneck 18.9183 -0.337088 -13.7705
head 9.4717 -2.65853 -2.69857
rclavicle -2.06736e-014 4.77083e-015
rhumerus 33.6008 27.7173 -62.2426
rradius 41.9972
rwrist 39.046
rhand -40.9473 -25.288
rfingers 7.12502
rthumb -13.8808 -54.8048
lclavicle -2.06736e-014 4.77083e-015
lhumerus 10.6887 -16.17 49.7405
lradius 22.1139
lwrist -5.68144
lhand -48.3974 10.7872
lfingers 7.12502
lthumb -21.0502 39.6647
rfemur -14.1 -12.5323 25.9771
rtibia 42.8995
rfoot -36.1721 -10.5749
rtoes -20.5619
lfemur -49.2945 25.9753 -4.38088
ltibia 84.6062
lfoot -36.019 -7.91169
ltoes -12.4502
